<?xml version="1.0" encoding="UTF-8"?><svg id="logos" xmlns="http://www.w3.org/2000/svg" xmlns:xlink="http://www.w3.org/1999/xlink" viewBox="0 0 200 200"><defs><linearGradient id="linear-gradient" x1="148.04116" y1="85.80807" x2="11.52979" y2="322.43501" gradientTransform="translate(0 -69.08196)" gradientUnits="userSpaceOnUse"><stop offset=".026" stop-color="#042d40"/><stop offset=".18044" stop-color="#0f3f51"/><stop offset=".26909" stop-color="#114355"/><stop offset=".36552" stop-color="#185061"/><stop offset=".46565" stop-color="#236676"/><stop offset=".56834" stop-color="#328493"/><stop offset=".67301" stop-color="#47abb9"/><stop offset=".77788" stop-color="#5fdbe6"/><stop offset=".77956" stop-color="#60dce7"/></linearGradient></defs><g id="Disney_"><rect width="200" height="200" style="fill:url(#linear-gradient); stroke-width:0px;"/><path d="M45.11288,89.92531c-4.84155-1.37007-12.58386-3.19268-21.0586-.93337-1.57422.41968-2.64362,1.11381-3.39287,2.43134-.373.65875-.71804,1.37051-.5297,2.097.16201.61694,1.04401.83335,1.75198.9466.68152.10739,2.22486.18841,2.64091-.30798.21731-.25927.22187-.98955-.90845-1.2265-.41696-.08741-1.55297-.1275-1.63981-.3186,0,0,.03892-.13296.66245-.32587.27518-.08513,2.29534-.91639,7.81383-.73874,6.56308.21128,12.29529,1.74796,18.35679,4.1352,5.93126,2.33595,12.59716,6.5598,16.50695,11.5887,1.479,1.90228,3.31524,5.0288,3.5564,7.66136.58567,6.39327-5.65823,11.78823-18.33468,11.35528-2.16649-.07399-4.7998-.58834-4.7998-.58834l-.2629-12.34163s5.36393-.04079,11.29545,1.91127c.50458.16606,1.01226.49632,1.05832.98626.03273.37679-.26447.69984-.59796.99155-.61402.53707-1.45979.77003-1.6461.99797-.13434.16435-.13546.41493.03912.55353.44604.34494,1.5398.57962,2.27896.51432,1.49566-.13213,2.49024-.99716,3.24149-2.1292.80102-1.20704,1.25675-4.27611-3.00324-6.23422-5.50682-2.53123-12.70363-2.0548-12.70363-2.0548,0,0-.03707-1.67417-.11119-2.78797-.12376-1.82761-.62961-5.41891-2.29479-6.45447-.30429-.18726-.67783-.20948-.88851.07467-.32272.4222-.64054,2.02885-.71056,2.44617-.62701,3.73681-.5932,7.08776-.62701,7.13491-.01907.02221-.03814.04021-.06459.06025-.06556.04183-4.04493.51666-7.88676,2.18057-1.53359.66421-3.72681,1.86252-4.39191,3.40501-.85826,1.99046.65098,4.16913,3.19705,6.58148,2.15654,2.04328,5.33743,4.19371,7.69267,5.30621.5999.28336,1.30582.63276,1.30582.63276,0,0,.15223,1.42574.27515,2.24993.44292,2.96982,2.70663,2.53701,3.33154,2.40975,1.01485-.20667,1.20959-.88218,1.34982-1.66365.07658-.42674.04443-1.04454.04443-1.04454,0,0,1.5334.35349,2.56365.54085,2.9944.55344,6.248.64872,9.06786.26345,11.27734-1.5408,14.11935-6.85456,15.0169-8.27255,1.56121-2.46648,4.87209-9.33937-5.10236-19.54087-2.27886-2.33074-8.86509-8.75006-22.0921-12.49308ZM30.22081,117.72935c-.40941-.42273-.72541-.88048-.62918-1.43392.09211-.53338,1.13668-1.00412,1.66474-1.15985,5.08684-1.50014,9.39903-1.57577,9.39903-1.57577,0,0-.04021,1.82545-.0492,3.67105-.01691,3.49658.07564,7.04604.07564,7.04604,0,0-5.73833-1.67118-10.46103-6.54755Z" style="fill:#fff; stroke-width:0px;"/><path d="M81.88954,104.88372c2.38474-.93405,4.22601-2.27547,6.09043-4.18354,1.08879-1.10767,2.0444-2.92888,1.69392-4.58867-.17523-.82508-.55199-1.39335-1.2414-1.98749-.34303-.29476-1.12832-.71125-1.767-.83781-.1852-.0367-.38205-.05097-.46256-.10314-.09106-.05787-.1637-.17728-.25152-.28787-.41782-.53033-1.24713-1.03716-1.84234-1.24182-1.82907-.63359-4.2703-.15573-5.93579.54671-1.76182.74567-3.38647,1.83873-4.62076,3.1621-3.23907,3.47287-1.81648,6.2231-1.52862,6.73565.24517.4341.70039.90138.79976,1.35553.06003.26996.00637.62259.01746.94149.02264.73089.34045,1.48389.88932,1.96908.39304.34573.95861.44944,1.527-.41255.19034-.28867.50781-.87778.50781-.87778,0,0,.66076.38272,2.25704.49412,1.19008.08305,2.82003-.27514,3.86724-.68401ZM74.24819,100.68756s-.11047-.23148-.18148-.40521c-.49102-1.22029.59274-2.59639,1.58173-3.43939,1.92524-1.64104,3.56419-1.60179,3.56419-1.60179,0,0-.39214.31403-.71775.59889-2.8113,2.45952-4.24669,4.84751-4.24669,4.84751ZM78.46374,100.64231c1.17771-1.51871,3.35799-3.40288,4.87758-4.30976,1.19083-.71068,2.21931-.90542,2.9874-.56826.45616.20023.82035.61354.88242,1.16715.20369,1.71226-1.77217,3.14309-3.09312,3.91348-3.00248,1.75109-6.55348,1.35534-6.64513,1.19668-.01369-.0416.71882-1.04096.99084-1.39929Z" style="fill:#fff; stroke-width:0px;"/><path d="M149.95123,109.94674c-3.82171-2.65254-9.98775,5.75739-12.7005,9.92753-.40394-2.12345,1.03218-4.81615,1.03218-4.81615,0,0,2.30298-3.98708,2.62894-4.79724.31413-.81488.49719-2.48955.10157-2.65608-.35906-.16533-.97909.37083-.97909.37083-5.1716,4.64136-5.89438,9.79054-5.89438,9.79054-.48893,2.77299.08266,4.72047.92119,6.08336-2.87455,6.12468-4.28114,11.46637-3.90678,14.62554.34842,2.40453,2.07146,4.14297,3.11666,4.51025,1.05584.44051,1.24361-.82906,1.24361-.82906.85505-6.53332,2.35019-10.90067,4.12998-15.21723,5.3901,1.23886,9.44686-4.00952,10.88297-6.5168.84403-1.50538,1.29951-3.51548,1.29918-5.40565-.00037-2.15362-.59243-4.15155-1.87554-5.06985ZM146.43775,120.36083c-.61882.58697-2.6679,1.73963-4.79136,1.9782,2.02429-3.92329,4.53863-6.81086,5.93222-8.35206,1.6215-1.82584,1.83409-.16771,1.83409-.16771.37792,3.22297-1.96756,5.64757-2.97495,6.54157Z" style="fill:#fff; stroke-width:0px;"/><path d="M132.24099,123.46807c.25746-.98143-.63538-2.05732-1.44317-2.25808-.75348-.1559-6.53807.92945-7.23012,1.11487-.74404.19958-.41217-.49957-.41217-.49957l.89399-3.02456s5.52122-.21257,6.32549-.34721c.74286-.13345.78774-.65782.78774-.65782,0,0,.09564-.86568.06846-1.67348-.08149-.86568-.77356-.78538-.77356-.78538-2.13522-.2232-5.07003.02835-5.07003.02835l.74051-2.32068s5.87311-.2858,8.10638-.80072c1.14677-.27045.47243-1.39713.47243-1.39713-1.39241-2.7848-2.99741-2.62772-2.99741-2.62772-4.61889-.15473-11.3317,1.06998-12.06395,1.43256-.68499.3106-.61059.8267.28225,1.9522.959,1.18572,2.57106,1.07472,2.57106,1.07472l-1.41485,2.92769c-1.15621.08149-1.55183.4417-1.55183.4417-.66611.71098.25273,2.81197.25273,2.81197,0,0-2.00535,4.49846-.55154,6.87463,1.56245,2.49428,3.40959,2.37499,3.40959,2.37499,3.51584.25629,9.28976-3.4249,9.59801-4.64132Z" style="fill:#fff; stroke-width:0px;"/><path d="M112.05582,105.59474s-.81844-.38265-1.02509.43341c-.20788.80782.10037,1.66878.10037,1.66878,2.03606,6.90886,2.49902,10.99042,2.49902,10.99042,0,0,.09446,1.20108-.13939,1.26721-.16298.124-.34483-.04723-.34483-.04723-.23385.00825-2.46591-3.7367-2.46591-3.7367l-.43344-.73341c-2.45652-3.96464-3.94575-5.31452-3.94575-5.31452-.3484-.32597-1.24241-1.22354-2.3561.01298-1.11487,1.24479-1.98764,5.24129-2.33839,8.99926-.29878,3.74969-.07086,5.88376.47592,6.78369.60232.91173,1.76326,1.22234,2.72106.44169,1.01212-.77827.82196-5.72433.98142-8.26112.15354-2.54742.40391-2.09274.40391-2.09274.2232-.06023,1.38295,2.27107,1.38295,2.27107,0,0,3.05406,6.25223,4.97201,7.17816,1.94277.92354,3.50643-.56334,4.09808-1.95574.60115-1.40185,1.62388-6.03966.10157-11.1794-1.53175-5.13854-4.6874-6.72581-4.6874-6.72581Z" style="fill:#fff; stroke-width:0px;"/><path d="M80.32245,118.82652c-.079-1.71021-.28269-6.07631-.7599-8.04916-.20681-.84934-.54995-1.62389-1.38614-1.94224-.09624-.03632-.20832-.06897-.28096-.08158-.52301-.10152-.8225.61881-.96347.97715-.41308,1.06088-.71042,3.59308-.792,4.38238-.24519,2.39283-.4452,8.0623-.02995,10.95131.17469,1.21026.57301,1.99645,1.79652,2.25003.49671.10324,1.40026.0832,1.7975-.17049.34681-.21576.58886-.6367.6699-.99762.22417-1.00615.1373-2.43432.09215-3.50783-.05367-1.26716-.08579-2.53013-.14365-3.81195Z" style="fill:#fff; stroke-width:0px;"/><path d="M100.07142,109.27279c-2.64045-1.40357-6.98509-1.40669-9.67331-1.07189-2.77727.34375-6.49384,1.20991-8.08115,3.49174-.60556.8708-.96096,2.20914-.68243,3.29906.15743.60544.59419,1.06589,1.22674,1.39515,1.12523.58573,4.87803.71138,6.55067.89086,1.57636.16915,4.47943.44964,6.07946,1.11718,0,0,1.51531.52828,1.50526,1.39312-.00366.42754-.32327.76763-.6476.99935-2.37499,1.68262-5.63879,2.16072-8.5419,2.11328-.98349-.01369-1.79476-.16842-2.79356-.59704-.42537-.18642-.97742-.52547-.90294-1.10672.11916-.92985,1.18198-1.15934,2.02703-1.07923.47066.04314,1.08667.24422,1.54892.42537,1.86173.73495,2.71151,1.35408,4.34939,1.10458.61127-.09263,2.72995-.55175,3.01472-1.42472.07106-.21275-.03105-.44219-.18741-.60124-.22319-.22849-1.49792-.72447-1.84382-.84977-1.24777-.44328-3.61325-.84978-4.92691-.90036-1.72425-.06104-4.09596.29171-5.07916,1.72274-.88648,1.29026-1.08593,3.88785,3.31328,6.07256,2.04496,1.01555,4.52202,1.46688,6.80707,1.21629,1.3062-.14956,5.06681-.73547,6.48802-3.72659.76472-1.60946.68965-3.75806-.13328-5.28499-.54064-1.00655-1.20273-2.34643-6.11041-2.96414-.78387-.09866-6.55773-.76678-7.08774-.84978-.29314-.04591-1.64586-.20638-1.17143-.72232.13317-.14848.54387-.259.78131-.32639,3.031-.82768,6.87813-.73343,10.0603-.91243.7108-.04367,2.32819-.14169,3.1095-.38958.74444-.23172,1.35991-.75867,1.53156-1.57739.08583-.43444-.1227-.6392-.53018-.8567Z" style="fill:#fff; stroke-width:0px;"/><path d="M178.81536,113.0081h-9.07041c-.09967-3.13526-.41688-6.23119-.94849-9.27501-.09133-.52301-.54528-.90354-1.07382-.90354h-2.44459c-.47732,0-.83874.43544-.75027.90668.5702,3.03735.91022,6.13289,1.01698,9.27188h-9.2152c-.42151.00001-.76324.3433-.76324.76681v2.78122c0,.42349.34173.7668.76324.7668h9.2152c-.10676,3.13899-.44678,6.23453-1.01698,9.27188-.08847.47124.27295.90669.75027.90669h2.44459c.52854,0,.98249-.38054,1.07382-.90354.53161-3.04384.84882-6.13976.94849-9.27504h9.07041c.42154,0,.76324-.34331.76324-.7668v-2.78124c0-.42349-.3417-.7668-.76324-.7668Z" style="fill:#fff; stroke-width:0px;"/><path d="M53.91904,79.34943c.35906.24951.86354.06509,1.22323-.32254,3.11119-3.35292,6.51454-6.26875,10.39129-8.91643,25.43597-17.3719,62.77425-14.84741,84.62133,7.16837,7.1761,7.19447,11.12658,14.91742,13.19882,20.98732.15158.444.56512.74334,1.03234.74334h2.50843c.52113,0,.89158-.51377.72417-1.00955-2.71856-8.05131-7.98341-16.88876-15.63309-24.07595-22.93167-21.60079-60.08008-24.00174-85.96466-6.34022-4.23461,2.86057-8.44272,6.52358-12.13922,10.70959-.36428.41252-.24122.86248.03737,1.05608Z" style="fill:#fff; stroke-width:0px;"/></g></svg>