<?xml version="1.0" encoding="UTF-8" standalone="no"?>
<svg
   viewBox="0 0 1605.4798 1560.283"
   shape-rendering="geometricPrecision"
   text-rendering="geometricPrecision"
   image-rendering="optimizeQuality"
   fill-rule="evenodd"
   clip-rule="evenodd"
   version="1.1"
   id="svg1"
   width="1605.4797"
   height="1560.2831"
   xmlns="http://www.w3.org/2000/svg"
   xmlns:svg="http://www.w3.org/2000/svg">
  <defs
     id="defs1" />
  <g
     id="g2"
     transform="translate(136.07489,113.49152)">
    <rect
       style="fill:#ffffff;stroke:#000000"
       id="rect1"
       width="1604.4797"
       height="1559.2831"
       x="-135.57489"
       y="-112.99152" />
    <path
       d="M 666.65997,0.00503662 C 298.47997,0.00503662 -3.2958984e-5,298.47503 -3.2958984e-5,666.65503 -3.2958984e-5,1034.845 298.47997,1333.305 666.65997,1333.305 c 368.22003,0 666.67003,-298.45 666.67003,-666.64997 0,-368.16 -298.45,-666.61999338 -666.68003,-666.61999338 l 0.01,-0.04 z m 305.73,961.50999338 c -11.94,19.58 -37.57,25.8 -57.16,13.77 -156.52,-95.61 -353.57,-117.26 -585.63,-64.24 -22.36,5.09 -44.65,-8.92 -49.75,-31.29 -5.12,-22.37 8.84,-44.66 31.26,-49.75 253.95,-58.02 471.78,-33.04 647.51,74.35 19.59,12.02 25.8,37.57 13.77,57.16 z m 81.60003,-181.52 c -15.05,24.45 -47.05,32.17 -71.49003,17.13 -179.2,-110.15 -452.35,-142.05 -664.31,-77.7 -27.49,8.3 -56.52,-7.19 -64.86,-34.63 -8.28,-27.49 7.22,-56.46 34.66,-64.82 242.11,-73.46 543.1,-37.88 748.89003,88.58 24.44,15.05 32.16,47.05 17.12,71.46 v -0.01 z m 7.01,-189.02 c -214.87003,-127.62 -569.36003,-139.35 -774.50003,-77.09 -32.94,9.99 -67.78,-8.6 -77.76,-41.55 -9.98,-32.96 8.6,-67.77 41.56,-77.78 235.49,-71.49 626.96,-57.68 874.34003,89.18 29.69,17.59 39.41,55.85 21.81,85.44 -17.52,29.63 -55.89,39.4 -85.42,21.8 z"
       fill="#1ed760"
       fill-rule="nonzero"
       id="path1" />
  </g>
</svg>
